<?xml version="1.0" encoding="UTF-8"?>
<svg class="DayTilesContainer" viewBox="0 0 566 54" preserveAspectRatio="xMidYMin meet" width="566" height="54" style="max-width: 100%; height: auto;"><text x="0" y="22.4" class="DayTiles--rowLabel" font-size="8">Jan 2025</text><text x="0" y="36.4" class="DayTiles--rowLabel" font-size="8">Feb 2025</text><text x="0" y="50.4" class="DayTiles--rowLabel" font-size="8">Mar 2025</text><rect x="92" y="14" width="12" height="12" rx="3" ry="3" fill="#e3e7ec" data-date="Wed Jan 01 2025" class="DayTiles--day DayTiles--day--past"></rect><rect x="106" y="14" width="12" height="12" rx="3" ry="3" fill="#e3e7ec" data-date="Thu Jan 02 2025" class="DayTiles--day DayTiles--day--past"></rect><rect x="120" y="14" width="12" height="12" rx="3" ry="3" fill="#e3e7ec" data-date="Fri Jan 03 2025" class="DayTiles--day DayTiles--day--past"></rect><rect x="134" y="14" width="12" height="12" rx="3" ry="3" fill="#e3e7ec" data-date="Sat Jan 04 2025" class="DayTiles--day DayTiles--day--past"></rect><rect x="148" y="14" width="12" height="12" rx="3" ry="3" fill="#e3e7ec" data-date="Sun Jan 05 2025" class="DayTiles--day DayTiles--day--past"></rect><rect x="162" y="14" width="12" height="12" rx="3" ry="3" fill="#e3e7ec" data-date="Mon Jan 06 2025" class="DayTiles--day DayTiles--day--past"></rect><rect x="176" y="14" width="12" height="12" rx="3" ry="3" fill="#e3e7ec" data-date="Tue Jan 07 2025" class="DayTiles--day DayTiles--day--past"></rect><rect x="190" y="14" width="12" height="12" rx="3" ry="3" fill="#1f6feb" data-date="Wed Jan 08 2025" data-note="2025-01-08" class="DayTiles--day DayTiles--day--past"></rect><rect x="204" y="14" width="12" height="12" rx="3" ry="3" fill="#a371f7" data-date="Thu Jan 09 2025" data-note="2025-01-09" class="DayTiles--day DayTiles--day--past"></rect><rect x="218" y="14" width="12" height="12" rx="3" ry="3" fill="#e3e7ec" data-date="Fri Jan 10 2025" class="DayTiles--day DayTiles--day--past"></rect><rect x="232" y="14" width="12" height="12" rx="3" ry="3" fill="#e3e7ec" data-date="Sat Jan 11 2025" class="DayTiles--day DayTiles--day--past"></rect><rect x="246" y="14" width="12" height="12" rx="3" ry="3" fill="#e3e7ec" data-date="Sun Jan 12 2025" class="DayTiles--day DayTiles--day--past"></rect><rect x="260" y="14" width="12" height="12" rx="3" ry="3" fill="#e3e7ec" data-date="Mon Jan 13 2025" class="DayTiles--day DayTiles--day--past"></rect><rect x="274" y="14" width="12" height="12" rx="3" ry="3" fill="#e3e7ec" data-date="Tue Jan 14 2025" class="DayTiles--day DayTiles--day--past"></rect><rect x="288" y="14" width="12" height="12" rx="3" ry="3" fill="#1f6feb" data-date="Wed Jan 15 2025" data-note="2025-01-15" class="DayTiles--day DayTiles--day--past"></rect><rect x="302" y="14" width="12" height="12" rx="3" ry="3" fill="#e3e7ec" data-date="Thu Jan 16 2025" class="DayTiles--day DayTiles--day--past"></rect><rect x="316" y="14" width="12" height="12" rx="3" ry="3" fill="#e3e7ec" data-date="Fri Jan 17 2025" class="DayTiles--day DayTiles--day--past"></rect><rect x="330" y="14" width="12" height="12" rx="3" ry="3" fill="#e3e7ec" data-date="Sat Jan 18 2025" class="DayTiles--day DayTiles--day--past"></rect><rect x="344" y="14" width="12" height="12" rx="3" ry="3" fill="#e3e7ec" data-date="Sun Jan 19 2025" class="DayTiles--day DayTiles--day--past"></rect><rect x="358" y="14" width="12" height="12" rx="3" ry="3" fill="#e3e7ec" data-date="Mon Jan 20 2025" class="DayTiles--day DayTiles--day--past"></rect><rect x="372" y="14" width="12" height="12" rx="3" ry="3" fill="#e3e7ec" data-date="Tue Jan 21 2025" class="DayTiles--day DayTiles--day--past"></rect><rect x="386" y="14" width="12" height="12" rx="3" ry="3" fill="#1f6feb" data-date="Wed Jan 22 2025" data-note="2025-01-22 • 2025-01-22" data-count="2" class="DayTiles--day DayTiles--day--past"></rect><rect x="400" y="14" width="12" height="12" rx="3" ry="3" fill="#e3e7ec" data-date="Thu Jan 23 2025" class="DayTiles--day DayTiles--day--past"></rect><rect x="414" y="14" width="12" height="12" rx="3" ry="3" fill="#e3e7ec" data-date="Fri Jan 24 2025" class="DayTiles--day DayTiles--day--past"></rect><rect x="428" y="14" width="12" height="12" rx="3" ry="3" fill="#e3e7ec" data-date="Sat Jan 25 2025" class="DayTiles--day DayTiles--day--past"></rect><rect x="442" y="14" width="12" height="12" rx="3" ry="3" fill="#e3e7ec" data-date="Sun Jan 26 2025" class="DayTiles--day DayTiles--day--past"></rect><rect x="456" y="14" width="12" height="12" rx="3" ry="3" fill="#e3e7ec" data-date="Mon Jan 27 2025" class="DayTiles--day DayTiles--day--past"></rect><rect x="470" y="14" width="12" height="12" rx="3" ry="3" fill="#e3e7ec" data-date="Tue Jan 28 2025" class="DayTiles--day DayTiles--day--past"></rect><rect x="484" y="14" width="12" height="12" rx="3" ry="3" fill="#e3e7ec" data-date="Wed Jan 29 2025" class="DayTiles--day DayTiles--day--past"></rect><rect x="498" y="14" width="12" height="12" rx="3" ry="3" fill="#e3e7ec" data-date="Thu Jan 30 2025" class="DayTiles--day DayTiles--day--past"></rect><rect x="512" y="14" width="12" height="12" rx="3" ry="3" fill="#e3e7ec" data-date="Fri Jan 31 2025" class="DayTiles--day DayTiles--day--past"></rect><rect x="134" y="28" width="12" height="12" rx="3" ry="3" fill="#f0f3f7" data-date="Sat Feb 01 2025" class="DayTiles--day DayTiles--day--past"></rect><rect x="148" y="28" width="12" height="12" rx="3" ry="3" fill="#f0f3f7" data-date="Sun Feb 02 2025" class="DayTiles--day DayTiles--day--past"></rect><rect x="162" y="28" width="12" height="12" rx="3" ry="3" fill="#f0f3f7" data-date="Mon Feb 03 2025" class="DayTiles--day DayTiles--day--past"></rect><rect x="176" y="28" width="12" height="12" rx="3" ry="3" fill="#1f6feb" data-date="Tue Feb 04 2025" data-note="2025-02-04" class="DayTiles--day DayTiles--day--past"></rect><rect x="190" y="28" width="12" height="12" rx="3" ry="3" fill="#f0f3f7" data-date="Wed Feb 05 2025" class="DayTiles--day DayTiles--day--past"></rect><rect x="204" y="28" width="12" height="12" rx="3" ry="3" fill="#f0f3f7" data-date="Thu Feb 06 2025" class="DayTiles--day DayTiles--day--past"></rect><rect x="218" y="28" width="12" height="12" rx="3" ry="3" fill="#f0f3f7" data-date="Fri Feb 07 2025" class="DayTiles--day DayTiles--day--past"></rect><rect x="232" y="28" width="12" height="12" rx="3" ry="3" fill="#f0f3f7" data-date="Sat Feb 08 2025" class="DayTiles--day DayTiles--day--past"></rect><rect x="246" y="28" width="12" height="12" rx="3" ry="3" fill="#f0f3f7" data-date="Sun Feb 09 2025" class="DayTiles--day DayTiles--day--past"></rect><rect x="260" y="28" width="12" height="12" rx="3" ry="3" fill="#f0f3f7" data-date="Mon Feb 10 2025" class="DayTiles--day DayTiles--day--past"></rect><rect x="274" y="28" width="12" height="12" rx="3" ry="3" fill="#f0f3f7" data-date="Tue Feb 11 2025" class="DayTiles--day DayTiles--day--past"></rect><rect x="288" y="28" width="12" height="12" rx="3" ry="3" fill="#a371f7" data-date="Wed Feb 12 2025" data-note="2025-02-12 • 2025-02-12 • 2025-02-12" data-count="3" class="DayTiles--day DayTiles--day--past"></rect><rect x="302" y="28" width="12" height="12" rx="3" ry="3" fill="#f0f3f7" data-date="Thu Feb 13 2025" class="DayTiles--day DayTiles--day--past"></rect><rect x="316" y="28" width="12" height="12" rx="3" ry="3" fill="#f0f3f7" data-date="Fri Feb 14 2025" class="DayTiles--day DayTiles--day--past"></rect><rect x="330" y="28" width="12" height="12" rx="3" ry="3" fill="#f0f3f7" data-date="Sat Feb 15 2025" class="DayTiles--day DayTiles--day--past"></rect><rect x="344" y="28" width="12" height="12" rx="3" ry="3" fill="#f0f3f7" data-date="Sun Feb 16 2025" class="DayTiles--day DayTiles--day--past"></rect><rect x="358" y="28" width="12" height="12" rx="3" ry="3" fill="#f0f3f7" data-date="Mon Feb 17 2025" class="DayTiles--day DayTiles--day--past"></rect><rect x="372" y="28" width="12" height="12" rx="3" ry="3" fill="#f0f3f7" data-date="Tue Feb 18 2025" class="DayTiles--day DayTiles--day--past"></rect><rect x="386" y="28" width="12" height="12" rx="3" ry="3" fill="#f0f3f7" data-date="Wed Feb 19 2025" class="DayTiles--day DayTiles--day--past"></rect><rect x="400" y="28" width="12" height="12" rx="3" ry="3" fill="#f0f3f7" data-date="Thu Feb 20 2025" class="DayTiles--day DayTiles--day--past"></rect><rect x="414" y="28" width="12" height="12" rx="3" ry="3" fill="#f0f3f7" data-date="Fri Feb 21 2025" class="DayTiles--day DayTiles--day--past"></rect><rect x="428" y="28" width="12" height="12" rx="3" ry="3" fill="#f0f3f7" data-date="Sat Feb 22 2025" class="DayTiles--day DayTiles--day--past"></rect><rect x="442" y="28" width="12" height="12" rx="3" ry="3" fill="#f0f3f7" data-date="Sun Feb 23 2025" class="DayTiles--day DayTiles--day--past"></rect><rect x="456" y="28" width="12" height="12" rx="3" ry="3" fill="#f0f3f7" data-date="Mon Feb 24 2025" class="DayTiles--day DayTiles--day--past"></rect><rect x="470" y="28" width="12" height="12" rx="3" ry="3" fill="#1f6feb" data-date="Tue Feb 25 2025" data-note="2025-02-25" class="DayTiles--day DayTiles--day--past"></rect><rect x="484" y="28" width="12" height="12" rx="3" ry="3" fill="#f0f3f7" data-date="Wed Feb 26 2025" class="DayTiles--day DayTiles--day--past"></rect><rect x="498" y="28" width="12" height="12" rx="3" ry="3" fill="#f0f3f7" data-date="Thu Feb 27 2025" class="DayTiles--day DayTiles--day--past"></rect><rect x="512" y="28" width="12" height="12" rx="3" ry="3" fill="#f0f3f7" data-date="Fri Feb 28 2025" class="DayTiles--day DayTiles--day--past"></rect><rect x="134" y="42" width="12" height="12" rx="3" ry="3" fill="#e3e7ec" data-date="Sat Mar 01 2025" class="DayTiles--day DayTiles--day--past"></rect><rect x="148" y="42" width="12" height="12" rx="3" ry="3" fill="#e3e7ec" data-date="Sun Mar 02 2025" class="DayTiles--day DayTiles--day--past"></rect><rect x="162" y="42" width="12" height="12" rx="3" ry="3" fill="#a371f7" data-date="Mon Mar 03 2025" data-note="2025-03-03" class="DayTiles--day DayTiles--day--past"></rect><rect x="176" y="42" width="12" height="12" rx="3" ry="3" fill="#e3e7ec" data-date="Tue Mar 04 2025" class="DayTiles--day DayTiles--day--past"></rect><rect x="190" y="42" width="12" height="12" rx="3" ry="3" fill="#e3e7ec" data-date="Wed Mar 05 2025" class="DayTiles--day DayTiles--day--past"></rect><rect x="204" y="42" width="12" height="12" rx="3" ry="3" fill="#e3e7ec" data-date="Thu Mar 06 2025" class="DayTiles--day DayTiles--day--past"></rect><rect x="218" y="42" width="12" height="12" rx="3" ry="3" fill="#e3e7ec" data-date="Fri Mar 07 2025" class="DayTiles--day DayTiles--day--past"></rect><rect x="232" y="42" width="12" height="12" rx="3" ry="3" fill="#e3e7ec" data-date="Sat Mar 08 2025" class="DayTiles--day DayTiles--day--past"></rect><rect x="246" y="42" width="12" height="12" rx="3" ry="3" fill="#e3e7ec" data-date="Sun Mar 09 2025" class="DayTiles--day DayTiles--day--past"></rect><rect x="260" y="42" width="12" height="12" rx="3" ry="3" fill="#e3e7ec" data-date="Mon Mar 10 2025" class="DayTiles--day DayTiles--day--past"></rect><rect x="274" y="42" width="12" height="12" rx="3" ry="3" fill="#1f6feb" data-date="Tue Mar 11 2025" data-note="2025-03-11 • 2025-03-11" data-count="2" class="DayTiles--day DayTiles--day--past"></rect><rect x="288" y="42" width="12" height="12" rx="3" ry="3" fill="#e3e7ec" data-date="Wed Mar 12 2025" class="DayTiles--day DayTiles--day--past"></rect><rect x="302" y="42" width="12" height="12" rx="3" ry="3" fill="#e3e7ec" data-date="Thu Mar 13 2025" class="DayTiles--day DayTiles--day--past"></rect><rect x="316" y="42" width="12" height="12" rx="3" ry="3" fill="#e3e7ec" data-date="Fri Mar 14 2025" class="DayTiles--day DayTiles--day--past"></rect><rect x="330" y="42" width="12" height="12" rx="3" ry="3" fill="#e3e7ec" data-date="Sat Mar 15 2025" class="DayTiles--day DayTiles--day--past"></rect><rect x="344" y="42" width="12" height="12" rx="3" ry="3" fill="#e3e7ec" data-date="Sun Mar 16 2025" class="DayTiles--day DayTiles--day--past"></rect><rect x="358" y="42" width="12" height="12" rx="3" ry="3" fill="#e3e7ec" data-date="Mon Mar 17 2025" class="DayTiles--day DayTiles--day--past"></rect><rect x="372" y="42" width="12" height="12" rx="3" ry="3" fill="#e3e7ec" data-date="Tue Mar 18 2025" class="DayTiles--day DayTiles--day--past"></rect><rect x="386" y="42" width="12" height="12" rx="3" ry="3" fill="#a371f7" data-date="Wed Mar 19 2025" data-note="2025-03-19" class="DayTiles--day DayTiles--day--past"></rect><rect x="400" y="42" width="12" height="12" rx="3" ry="3" fill="#e3e7ec" data-date="Thu Mar 20 2025" class="DayTiles--day DayTiles--day--past"></rect><rect x="414" y="42" width="12" height="12" rx="3" ry="3" fill="#e3e7ec" data-date="Fri Mar 21 2025" class="DayTiles--day DayTiles--day--past"></rect><rect x="428" y="42" width="12" height="12" rx="3" ry="3" fill="#e3e7ec" data-date="Sat Mar 22 2025" class="DayTiles--day DayTiles--day--past"></rect><rect x="442" y="42" width="12" height="12" rx="3" ry="3" fill="#e3e7ec" data-date="Sun Mar 23 2025" class="DayTiles--day DayTiles--day--past"></rect><rect x="456" y="42" width="12" height="12" rx="3" ry="3" fill="#e3e7ec" data-date="Mon Mar 24 2025" class="DayTiles--day DayTiles--day--past"></rect><rect x="470" y="42" width="12" height="12" rx="3" ry="3" fill="#e3e7ec" data-date="Tue Mar 25 2025" class="DayTiles--day DayTiles--day--past"></rect><rect x="484" y="42" width="12" height="12" rx="3" ry="3" fill="#1f6feb" data-date="Wed Mar 26 2025" data-note="2025-03-26" class="DayTiles--day DayTiles--day--past"></rect><rect x="498" y="42" width="12" height="12" rx="3" ry="3" fill="#e3e7ec" data-date="Thu Mar 27 2025" class="DayTiles--day DayTiles--day--past"></rect><rect x="512" y="42" width="12" height="12" rx="3" ry="3" fill="#e3e7ec" data-date="Fri Mar 28 2025" class="DayTiles--day DayTiles--day--past"></rect><rect x="526" y="42" width="12" height="12" rx="3" ry="3" fill="#e3e7ec" data-date="Sat Mar 29 2025" class="DayTiles--day DayTiles--day--past"></rect><rect x="540" y="42" width="12" height="12" rx="3" ry="3" fill="#e3e7ec" data-date="Sun Mar 30 2025" class="DayTiles--day DayTiles--day--past"></rect><rect x="554" y="42" width="12" height="12" rx="3" ry="3" fill="#e3e7ec" data-date="Mon Mar 31 2025" class="DayTiles--day DayTiles--day--past"></rect></svg>